<svg width="82" height="107" viewBox="0 0 82 107" fill="none" xmlns="http://www.w3.org/2000/svg">
<path d="M39.6748 67.1206C38.7001 69.6036 34.1684 65.6599 40.9904 64.1507C47.5689 62.6901 46.2531 67.1206 44.2552 66.4877C42.7934 66.0497 39.7235 66.9743 39.6748 67.1206Z" fill="#4C5C46"/>
<path d="M39.5772 72.9142C40.1132 71.4049 42.4522 72.2326 41.8675 73.7906C38.7975 82.1647 28.0284 80.8501 29.003 77.9776C29.7339 75.8354 32.0729 78.854 35.9712 77.0039C37.5793 76.2249 38.8462 74.813 39.5772 72.9142Z" fill="#4C5C46"/>
<path d="M46.7892 2.46485C22.9119 2.46485 7.51355 23.8869 18.5263 41.6088C20.1831 44.3352 18.1853 51.4435 17.3568 53.7317C36.4098 50.1289 24.0814 51.5409 37.7255 54.9489C56.4862 59.6228 78.6092 48.5223 78.6092 29.2425C78.6092 14.4904 64.3316 2.46485 46.7892 2.46485ZM46.1557 92.194C43.5243 92.4376 43.8166 92.3888 41.4289 94.531C39.626 96.6732 38.7488 99.8378 41.1854 102.272C43.3782 104.463 48.1049 102.077 52.9291 103.1C54.1473 103.343 54.6346 101.542 53.1726 100.958C46.9353 98.6206 45.7658 101.737 44.9375 99.6917C44.6939 99.0588 44.9862 98.3285 45.6196 98.0851C50.4438 96.089 54.9269 100.373 54.2447 97.3548C53.6599 94.9205 48.3485 94.8718 45.912 95.456C44.304 95.797 43.7679 93.4112 45.3272 93.0704L47.1303 92.5349C46.838 92.34 46.4968 92.2427 46.1557 92.194ZM59.8485 60.84C60.0434 60.8887 60.1895 60.9374 60.3845 61.0348C67.9862 65.3192 73.2003 72.963 73.2003 81.7753C73.2003 94.1903 67.1091 101.785 55.804 104.268C55.1218 105.242 53.9036 105.826 52.4417 105.486C48.7383 104.755 44.9862 106.362 41.8675 105.437C39.4797 105.291 2.73809 114.2 2.73809 83.1385C2.73809 79.1462 3.8101 75.2999 5.75928 71.8919C5.85671 69.6036 7.12368 67.4615 9.07286 66.8772C-1.11152 64.6863 -2.2323 55.9228 3.27406 51.6871C0.399071 45.5525 4.63849 39.3694 10.6322 39.0773C9.8038 35.6205 11.0706 32.3585 12.5326 31.044C11.8991 22.5239 15.7 14.3445 22.5708 8.50214C44.0603 -9.7066 81.0944 3.24404 81.0944 29.2426C81.0944 43.2156 70.3253 53.6345 56.8273 57.1886C58.2892 57.8215 59.3125 59.2333 59.8485 60.84ZM36.5073 94.8718C35.1916 97.5982 35.5327 100.909 36.9946 103.684C37.628 103.587 38.2616 103.538 38.8951 103.44C36.6535 100.714 36.8484 97.5007 38.2616 94.823C37.6768 94.8717 37.092 94.8718 36.5073 94.8718ZM49.9078 77.1986C53.465 71.5997 54.0985 64.4427 51.4184 58.2109C46.7404 58.7951 41.8675 58.5519 37.0921 57.3345C23.253 53.8778 36.5073 52.7093 15.7975 56.5555C12.9225 60.061 13.2635 63.8098 12.3864 65.7086C12.0454 67.7048 13.361 73.6932 14.2868 75.0564C23.3992 88.1531 40.0645 92.5835 49.9078 77.1986ZM10.1449 69.214C7.12368 69.214 7.95208 76.6144 11.3631 75.8353C11.558 75.7866 11.7528 75.6892 11.9478 75.5918C11.022 73.547 10.4373 71.4049 10.1449 69.214ZM55.5604 66.0007C59.2638 66.5362 57.9481 58.2595 54.4883 59.428L55.5604 66.0007Z" fill="#4C5C46"/>
<path d="M27.6386 69.7495C29.1005 70.4799 27.9309 72.6708 26.5178 71.9405C26.3717 71.843 23.4479 73.2063 22.6683 74.5209C21.5962 76.2735 17.6492 73.8879 23.5941 70.5773C25.1047 69.7009 26.859 69.3114 27.6386 69.7495Z" fill="#4C5C46"/>
<path d="M39.9183 14.8312C42.6472 14.8312 45.1811 16.1458 46.7404 18.288C51.3209 11.5693 62.0413 15.3181 62.0413 23.254C62.0413 33.04 52.393 36.8375 47.7637 43.2154C47.2764 43.897 46.2531 43.8484 45.7658 43.1667C41.3802 37.0322 31.4882 34.3058 31.4882 23.254C31.4882 18.58 35.289 14.8312 39.9183 14.8312Z" fill="#4C5C46"/>
</svg>
