<svg width="394" height="464" viewBox="0 0 394 464" fill="none" xmlns="http://www.w3.org/2000/svg">
<g clip-path="url(#clip0_127_2)">
<path fill-rule="evenodd" clip-rule="evenodd" d="M120.164 108.099C116.748 108.536 113.777 108.77 108.012 107.228C102.247 105.687 92.2386 101.798 85.5734 98.8493C78.9082 95.9007 73.1228 91.6769 68.0207 89.5372C62.9186 87.3974 59.6788 86.119 54.9609 86.011C50.2429 85.903 43.8433 86.6686 39.7131 88.889C35.5828 91.1095 32.4992 95.2959 30.1796 99.3336C27.86 103.371 25.9472 108.211 25.7954 113.115C25.6436 118.019 26.9023 124.144 29.2687 128.759C31.635 133.375 36.0016 137.66 39.9933 140.808C43.985 143.956 47.8114 145.847 53.2188 147.645C58.6261 149.443 66.6005 150.896 72.4374 151.595C78.2743 152.294 83.9275 151.137 88.2403 151.837C92.5531 152.537 95.4871 153.597 98.3143 155.794C101.142 157.992 104.037 161.639 105.204 165.024C106.371 168.409 106.39 173.116 105.316 176.104C104.242 179.093 101.555 181.261 98.7609 182.955C95.9668 184.649 93.0951 185.59 88.5514 186.268C84.0078 186.947 76.8027 187.034 71.4989 187.028C66.1951 187.021 61.6275 186.121 56.7285 186.231C51.8295 186.34 46.0397 186.568 42.105 187.682C38.1703 188.796 35.1192 190.638 33.1203 192.915C31.1213 195.191 30.33 198.512 30.1112 201.342C29.8923 204.172 30.6281 207.456 31.8071 209.895C32.9861 212.335 34.8568 214.602 37.185 215.979C39.5133 217.357 41.9921 218.135 45.7767 218.16C49.5613 218.185 55.7157 216.619 59.8925 216.128C64.0693 215.638 67.8503 214.946 70.8377 215.216C73.8251 215.487 76.3116 216.496 77.8168 217.752C79.3219 219.009 79.9364 220.848 79.8684 222.755C79.8004 224.662 79.5798 225.427 77.4087 229.195C75.2375 232.964 70.324 239.983 66.8415 245.365C63.3591 250.746 60.3421 256.315 56.5138 261.486C52.6855 266.657 46.301 272.521 43.8718 276.39C41.4427 280.26 41.7452 282.046 41.9391 284.705C42.1329 287.364 43.1183 290.426 45.0347 292.345C46.9511 294.263 50.1208 295.898 53.4374 296.217C56.754 296.537 60.9143 296.094 64.9346 294.259C68.9548 292.424 73.4282 288.63 77.559 285.205C81.6898 281.781 85.9356 276.629 89.7194 273.714C93.5033 270.8 96.9617 268.901 100.262 267.717C103.562 266.534 106.839 266.21 109.522 266.615C112.204 267.019 114.641 268.173 116.357 270.142C118.072 272.111 119.43 275.373 119.815 278.428C120.2 281.483 119.299 284.402 118.667 288.473C118.035 292.544 116.578 298.38 116.023 302.855C115.468 307.33 115.356 311.148 115.337 315.322C115.318 319.497 115.56 323.381 115.91 327.899C116.26 332.417 116.536 337.758 117.437 342.431C118.337 347.104 119.722 352.122 121.316 355.938C122.909 359.754 124.435 362.893 126.997 365.33C129.559 367.766 133.318 369.667 136.688 370.557C140.058 371.448 143.981 371.13 147.217 370.673C150.453 370.216 153.332 369.506 156.104 367.815C158.875 366.124 161.598 363.722 163.846 360.527C166.093 357.332 167.881 352.512 169.59 348.646C171.3 344.78 172.503 340.975 174.104 337.332C175.706 333.689 177.293 329.96 179.198 326.788C181.103 323.616 183.231 320.391 185.534 318.3C187.837 316.209 190.128 314.927 193.016 314.242C195.903 313.556 199.966 313.438 202.861 314.187C205.756 314.935 208.479 316.676 210.385 318.733C212.292 320.789 213.495 323.048 214.301 326.525C215.106 330.002 214.53 336.008 215.217 339.596C215.904 343.184 216.641 346.118 218.422 348.055C220.202 349.992 223.074 350.949 225.9 351.218C228.725 351.487 232.724 350.697 235.377 349.67C238.029 348.643 240.097 347.555 241.816 345.056C243.534 342.558 244.97 338.638 245.686 334.677C246.402 330.715 246.612 326.246 246.111 321.287C245.61 316.329 243.945 309.737 242.68 304.928C241.415 300.118 239.573 296.34 238.521 292.431C237.468 288.521 236.417 284.66 236.365 281.471C236.313 278.281 237.09 275.666 238.208 273.292C239.325 270.917 240.847 268.54 243.069 267.223C245.291 265.907 248.516 264.849 251.54 265.393C254.564 265.937 257.618 267.055 261.212 270.484C264.806 273.914 269.31 280.784 273.103 285.972C276.896 291.16 279.808 296.081 283.969 301.613C288.131 307.145 293.791 314.552 298.073 319.165C302.355 323.778 305.569 326.783 309.663 329.292C313.756 331.801 317.824 333.776 322.633 334.219C327.442 334.662 334.397 333.127 338.516 331.95C342.634 330.773 344.457 329.44 347.343 327.155C350.23 324.87 353.73 321.461 355.836 318.239C357.942 315.017 359.347 311.727 359.978 307.823C360.609 303.919 360.867 299.119 359.624 294.816C358.38 290.513 355.581 285.439 352.517 282.005C349.453 278.571 346.216 276.603 341.239 274.212C336.263 271.821 328.597 269.668 322.657 267.661C316.717 265.654 311.399 264.338 305.599 262.171C299.799 260.004 292.115 256.848 287.857 254.659C283.599 252.471 281.611 251.053 280.051 249.04C278.491 247.027 278.353 244.386 278.497 242.582C278.64 240.778 279.649 239.125 280.911 238.215C282.172 237.305 283.565 236.738 286.068 237.123C288.571 237.507 292.429 239.348 295.929 240.522C299.429 241.696 302.968 243.166 307.068 244.167C311.167 245.168 315.914 246.013 320.525 246.529C325.136 247.045 329.512 247.523 334.734 247.262C339.956 247.002 347.452 246.158 351.858 244.966C356.264 243.773 358.523 242.22 361.169 240.106C363.815 237.992 366.877 235.2 367.732 232.282C368.588 229.364 367.922 225.762 366.3 222.598C364.679 219.433 361.805 216.216 358.002 213.295C354.2 210.374 348.111 208.115 343.485 205.073C338.859 202.031 333.852 198.543 330.248 195.043C326.645 191.542 323.723 187.618 321.865 184.069C320.008 180.519 319.047 176.95 319.103 173.745C319.159 170.541 320.653 167.576 322.202 164.843C323.751 162.11 325.776 159.665 328.394 157.346C331.013 155.028 335.006 152.643 337.913 150.931C340.82 149.219 343.469 148.857 345.836 147.076C348.204 145.295 351.373 143.473 352.117 140.246C352.862 137.019 351.734 131.504 350.305 127.712C348.876 123.92 346.716 119.66 343.544 117.493C340.373 115.326 335.871 114.762 331.275 114.709C326.68 114.657 320.247 117.073 315.973 117.178C311.698 117.283 308.524 116.647 305.629 115.34C302.734 114.034 299.973 111.84 298.602 109.339C297.23 106.837 296.694 103.345 297.399 100.334C298.103 97.3228 299.939 93.9801 302.829 91.2728C305.718 88.5656 311.635 86.7792 314.735 84.0901C317.834 81.4009 320.262 78.6963 321.424 75.138C322.586 71.5796 322.804 66.4838 321.705 62.74C320.605 58.9963 318.409 55.1604 314.826 52.6755C311.244 50.1907 305.324 48.1631 300.207 47.8309C295.09 47.4986 289.239 48.7461 284.126 50.6818C279.012 52.6174 273.704 56.3383 269.526 59.4447C265.347 62.5512 262.581 65.8155 259.055 69.3205C255.53 72.8255 251.578 78.2394 248.372 80.4748C245.166 82.7102 242.64 83.0952 239.82 82.7327C236.999 82.3702 233.361 80.1036 231.45 78.2998C229.539 76.4961 229.277 74.8646 228.352 71.9101C227.427 68.9556 227.634 62.8867 225.9 60.573C224.167 58.2593 220.684 57.4301 217.951 58.028C215.218 58.626 211.908 60.9447 209.502 64.1608C207.096 67.3768 205.461 73.7762 203.514 77.3242C201.567 80.8721 200.042 83.4375 197.82 85.4483C195.599 87.459 192.844 89.1015 190.185 89.3887C187.525 89.6758 184.692 89.0836 181.865 87.1712C179.037 85.2589 176.459 81.1837 173.219 77.9146C169.98 74.6455 165.768 69.7709 162.429 67.5568C159.089 65.3427 156.261 64.1943 153.184 64.6301C150.107 65.0659 146.528 67.4439 143.964 70.1718C141.4 72.8997 139.401 76.9176 137.801 80.9975C136.202 85.0775 135.918 90.7171 134.369 94.6515C132.819 98.5859 130.872 102.363 128.505 104.604C126.137 106.845 123.579 107.661 120.164 108.099Z" fill="#06402B"/>
<path fill-rule="evenodd" clip-rule="evenodd" d="M379.648 315.11C379.119 311.149 381.889 307.509 385.835 306.98C387.729 306.726 389.648 307.238 391.167 308.403C392.687 309.569 393.683 311.292 393.937 313.194C394.467 317.155 391.697 320.795 387.751 321.324C383.805 321.853 380.177 319.071 379.648 315.11Z" fill="#06402B"/>
<path fill-rule="evenodd" clip-rule="evenodd" d="M348.803 178.899C347.353 168.048 354.94 158.076 365.749 156.627C370.939 155.931 376.194 157.333 380.356 160.526C384.518 163.718 387.248 168.439 387.944 173.65C389.394 184.501 381.807 194.472 370.998 195.922C360.19 197.371 350.253 189.75 348.803 178.899Z" fill="#06402B"/>
<path fill-rule="evenodd" clip-rule="evenodd" d="M265.877 314.841C263.764 316.629 260.525 320.86 259.287 323.502C258.049 326.145 258.205 328.693 258.45 330.698C258.694 332.702 259.541 334.208 260.755 335.527C261.969 336.846 263.157 338.145 265.732 338.609C268.307 339.074 273.12 339.031 276.206 338.316C279.293 337.601 282.201 335.73 284.25 334.321C286.298 332.912 288.052 331.542 288.496 329.863C288.94 328.183 287.915 326.029 286.915 324.242C285.916 322.455 284.025 320.903 282.498 319.14C280.972 317.377 279.511 314.726 277.755 313.665C276 312.604 273.944 312.579 271.965 312.775C269.985 312.971 267.99 313.054 265.877 314.841Z" fill="#06402B"/>
<path fill-rule="evenodd" clip-rule="evenodd" d="M95.4063 70.1758C89.6421 69.5161 79.083 65.9047 73.8614 62.7337C68.6398 59.5627 65.966 54.9329 64.0767 51.1498C62.1875 47.3667 61.927 43.7503 62.5258 40.0351C63.1246 36.3198 63.7012 32.6688 67.6695 28.858C71.6379 25.0472 80.1093 19.5175 86.3358 17.1704C92.5623 14.8233 99.8155 14.7019 105.028 14.7754C110.241 14.8488 114.893 15.1963 117.613 17.6111C120.332 20.0258 121.029 24.9801 121.346 29.2638C121.664 33.5475 120.151 38.4582 119.518 43.3132C118.885 48.1682 119.395 54.4973 117.549 58.3938C115.704 62.2902 112.137 64.7283 108.447 66.692C104.756 68.6557 101.171 70.8355 95.4063 70.1758Z" fill="#06402B"/>
<path fill-rule="evenodd" clip-rule="evenodd" d="M9.78655 188.73C9.52197 186.75 10.9069 184.93 12.8799 184.665C13.8273 184.538 14.7865 184.794 15.5462 185.377C16.306 185.96 16.8043 186.821 16.9313 187.772C17.1959 189.753 15.811 191.573 13.838 191.837C11.865 192.102 10.0511 190.711 9.78655 188.73Z" fill="#06402B"/>
<path fill-rule="evenodd" clip-rule="evenodd" d="M341.678 81.5415C339.32 82.1819 335.723 83.2198 333.698 84.9732C331.673 86.7265 329.645 89.4989 329.526 92.0616C329.408 94.6243 331.184 98.5999 332.985 100.349C334.787 102.099 337.376 102.84 340.336 102.559C343.295 102.278 347.997 99.3318 350.744 98.6625C353.49 97.9933 355.593 99.7488 356.815 98.543C358.037 97.3372 358.804 93.4142 358.078 91.4279C357.351 89.4416 354.161 88.3414 352.456 86.6252C350.751 84.909 349.645 81.9781 347.849 81.1308C346.052 80.2835 344.037 80.9011 341.678 81.5415Z" fill="#06402B"/>
<path fill-rule="evenodd" clip-rule="evenodd" d="M95.7318 285.315C95.2026 281.354 97.9725 277.714 101.918 277.185C103.813 276.931 105.732 277.443 107.251 278.608C108.771 279.774 109.767 281.497 110.021 283.399C110.55 287.36 107.781 291 103.835 291.529C99.8887 292.058 96.2609 289.276 95.7318 285.315Z" fill="#06402B"/>
<path fill-rule="evenodd" clip-rule="evenodd" d="M247.101 17.9545C245.942 9.27396 252.011 1.29706 260.657 0.13758C264.809 -0.419221 269.013 0.702725 272.343 3.25661C275.672 5.81049 277.856 9.5871 278.413 13.7556C279.572 22.4362 273.503 30.4131 264.857 31.5725C256.21 32.732 248.261 26.635 247.101 17.9545Z" fill="#06402B"/>
<path fill-rule="evenodd" clip-rule="evenodd" d="M180.372 66.0624C179.843 62.1013 182.613 58.4613 186.558 57.9322C188.453 57.678 190.372 58.19 191.891 59.3553C193.411 60.5207 194.407 62.244 194.661 64.1462C195.19 68.1072 192.421 71.7473 188.475 72.2764C184.529 72.8056 180.901 70.0235 180.372 66.0624Z" fill="#06402B"/>
<path fill-rule="evenodd" clip-rule="evenodd" d="M0.119936 258.988C-0.84643 251.754 4.21126 245.107 11.4166 244.141C14.8767 243.677 18.3795 244.612 21.1543 246.74C23.9291 248.868 25.7487 252.015 26.2128 255.489C27.1791 262.723 22.1215 269.371 14.9161 270.337C7.71078 271.303 1.0863 266.222 0.119936 258.988Z" fill="#06402B"/>
</g>
<defs>
<clipPath id="clip0_127_2">
<rect width="394" height="463.905" fill="white"/>
</clipPath>
</defs>
</svg>
