<svg width="321" height="40" viewBox="0 0 321 40" fill="none" xmlns="http://www.w3.org/2000/svg">
<path d="M160.442 24.411C177.465 12.569 199.921 11.794 220.386 15.138C240.851 18.482 260.662 25.472 281.28 27.683C292.451 28.881 305.027 28.163 312.98 20.227" stroke="#617457" stroke-miterlimit="10"/>
<path d="M172.859 18.002C177.105 17.792 181.305 20.759 182.526 24.831" stroke="#617457" stroke-miterlimit="10"/>
<path d="M188.523 14.128C192.771 13.965 196.413 9.75002 195.958 5.52402" stroke="#617457" stroke-miterlimit="10"/>
<path d="M206.014 13.343C206.785 13.921 207.561 14.503 208.204 15.219C210.741 18.041 210.746 22.251 210.607 26.044C210.623 25.726 210.64 25.409 210.656 25.092" stroke="#617457" stroke-miterlimit="10"/>
<path d="M222.576 15.638C224.35 15.218 226.145 14.791 227.763 13.952C229.381 13.113 230.831 11.805 231.464 10.096C231.781 9.24001 231.882 8.305 231.756 7.401" stroke="#617457" stroke-miterlimit="10"/>
<path d="M242.18 19.869C245.708 22.71 246.3 28.527 243.416 32.02" stroke="#617457" stroke-miterlimit="10"/>
<path d="M259.224 24.094C263.699 22.937 266.893 17.575 266.061 12.615" stroke="#617457" stroke-miterlimit="10"/>
<path d="M275.104 26.753C278.212 30.136 277.853 36.093 274.36 39.078" stroke="#617457" stroke-miterlimit="10"/>
<path d="M292.182 27.952C294.452 26.777 296.569 25.09 297.648 22.773C298.727 20.455 298.539 17.434 296.719 15.638" stroke="#617457" stroke-miterlimit="10"/>
<path d="M303.42 26.289C306.739 27.205 308.944 31.031 308.07 34.362" stroke="#617457" stroke-miterlimit="10"/>
<path d="M160.442 24.411C143.419 12.569 120.963 11.794 100.497 15.138C80.0308 18.482 60.2208 25.472 39.6028 27.683C28.4318 28.881 15.8558 28.163 7.90283 20.227" stroke="#617457" stroke-miterlimit="10"/>
<path d="M148.025 18.002C143.779 17.792 139.579 20.759 138.358 24.831" stroke="#617457" stroke-miterlimit="10"/>
<path d="M132.361 14.128C128.113 13.965 124.471 9.75002 124.926 5.52402" stroke="#617457" stroke-miterlimit="10"/>
<path d="M114.87 13.343C114.099 13.921 113.324 14.503 112.68 15.219C110.143 18.041 110.138 22.251 110.277 26.044C110.261 25.726 110.244 25.409 110.228 25.092" stroke="#617457" stroke-miterlimit="10"/>
<path d="M98.3079 15.638C96.5339 15.218 94.7389 14.791 93.1209 13.952C91.5029 13.113 90.0529 11.805 89.4199 10.096C89.1029 9.24001 89.0019 8.305 89.1279 7.401" stroke="#617457" stroke-miterlimit="10"/>
<path d="M78.7029 19.869C75.1749 22.71 74.5829 28.527 77.4669 32.02" stroke="#617457" stroke-miterlimit="10"/>
<path d="M61.6588 24.094C57.1838 22.937 53.9899 17.575 54.8219 12.615" stroke="#617457" stroke-miterlimit="10"/>
<path d="M45.7798 26.753C42.6718 30.136 43.0308 36.093 46.5238 39.078" stroke="#617457" stroke-miterlimit="10"/>
<path d="M28.7008 27.952C26.4308 26.777 24.3138 25.09 23.2348 22.773C22.1558 20.455 22.3438 17.434 24.1638 15.638" stroke="#617457" stroke-miterlimit="10"/>
<path d="M17.4628 26.289C14.1438 27.205 11.9388 31.031 12.8128 34.362" stroke="#617457" stroke-miterlimit="10"/>
<path d="M178.875 15.638C178.152 10.204 180.424 4.466 184.672 1C184.981 6.299 182.66 11.918 178.875 15.638Z" fill="#617457" stroke="#617457" stroke-miterlimit="10"/>
<path d="M195.192 25.135C193.033 24.414 191.139 22.927 189.924 21.003C188.709 19.078 188.183 16.729 188.46 14.47C191.756 16.77 194.542 21.17 195.192 25.135Z" stroke="#617457" stroke-miterlimit="10"/>
<path d="M213.614 3.98102C209.857 5.47202 207.127 9.262 206.902 13.298C208.713 12.686 210.295 11.296 211.318 9.681C212.341 8.066 213.101 5.82302 213.614 3.98102Z" stroke="#617457" stroke-miterlimit="10"/>
<path d="M225.6 27.422C223.823 26.264 222.727 24.26 222.273 22.188C221.819 20.117 221.941 17.964 222.166 15.855C223.456 16.354 224.429 17.329 224.993 18.591C225.557 19.854 225.755 21.247 225.861 22.626C225.977 24.153 225.693 25.895 225.6 27.422Z" fill="#617457" stroke="#617457" stroke-miterlimit="10"/>
<path d="M248.54 9.43701C244.266 10.578 240.846 14.425 240.214 18.804C242.479 18.711 244.582 17.56 245.933 15.739C247.282 13.919 247.887 11.608 248.54 9.43701Z" fill="#617457" stroke="#617457" stroke-miterlimit="10"/>
<path d="M261.789 35.39C259.69 34.206 258.11 32.24 257.041 30.08C255.972 27.92 255.376 25.558 254.887 23.198C257.106 24.28 258.935 25.957 259.988 28.19C261.041 30.423 261.524 32.935 261.789 35.39Z" stroke="#617457" stroke-miterlimit="10"/>
<path d="M274.308 26.55C275.041 25.091 275.784 23.618 276.826 22.361C278.452 20.4 280.792 19.043 283.302 18.607C283.323 21.817 281.096 24.991 278.076 26.078C276.992 26.467 275.451 26.407 274.308 26.55Z" stroke="#617457" stroke-miterlimit="10"/>
<path d="M295.581 37.694C293.561 37.197 291.808 35.847 290.606 34.15C289.403 32.453 288.721 30.427 288.401 28.372C290.33 29.256 292.424 30.439 293.788 32.064C295.151 33.69 295.749 35.579 295.581 37.694Z" fill="#617457" stroke="#617457" stroke-miterlimit="10"/>
<path d="M320.109 14.011C318.328 14.043 316.566 14.72 315.222 15.888C313.878 17.056 312.961 18.706 312.681 20.465C314.374 20.39 316.073 19.828 317.295 18.654C318.517 17.48 319.74 15.666 320.109 14.011Z" fill="#617457" stroke="#617457" stroke-miterlimit="10"/>
<path d="M142.736 15.638C143.46 10.204 141.187 4.466 136.939 1C136.629 6.299 138.951 11.918 142.736 15.638Z" stroke="#617457" stroke-miterlimit="10"/>
<path d="M126.419 25.135C128.577 24.414 130.472 22.927 131.687 21.003C132.902 19.078 133.428 16.729 133.151 14.47C129.855 16.77 127.069 21.17 126.419 25.135Z" fill="#617457" stroke="#617457" stroke-miterlimit="10"/>
<path d="M107.997 3.98102C111.754 5.47202 114.484 9.262 114.709 13.298C112.898 12.686 111.316 11.296 110.293 9.681C109.27 8.066 108.51 5.82302 107.997 3.98102Z" stroke="#617457" stroke-miterlimit="10"/>
<path d="M96.0108 27.422C97.7878 26.264 98.8838 24.26 99.3378 22.188C99.7918 20.117 99.6698 17.964 99.4458 15.855C98.1558 16.354 97.1828 17.329 96.6188 18.591C96.0548 19.854 95.8568 21.247 95.7508 22.626C95.6328 24.153 95.9178 25.895 96.0108 27.422Z" stroke="#617457" stroke-miterlimit="10"/>
<path d="M73.0708 9.43701C77.3448 10.578 80.7648 14.425 81.3968 18.804C79.1318 18.711 77.0288 17.56 75.6778 15.739C74.3288 13.919 73.7238 11.608 73.0708 9.43701Z" fill="#617457" stroke="#617457" stroke-miterlimit="10"/>
<path d="M59.8218 35.39C61.9208 34.206 63.5008 32.24 64.5698 30.08C65.6388 27.92 66.2348 25.558 66.7238 23.198C64.5048 24.28 62.6758 25.957 61.6228 28.19C60.5698 30.423 60.0858 32.935 59.8218 35.39Z" fill="#617457" stroke="#617457" stroke-miterlimit="10"/>
<path d="M47.3029 26.55C46.5699 25.091 45.8269 23.618 44.7849 22.361C43.1589 20.4 40.8189 19.043 38.3089 18.607C38.2879 21.817 40.5149 24.991 43.5349 26.078C44.6189 26.467 46.1599 26.407 47.3029 26.55Z" stroke="#617457" stroke-miterlimit="10"/>
<path d="M26.0298 37.694C28.0498 37.197 29.8028 35.847 31.0048 34.15C32.2078 32.453 32.8898 30.427 33.2098 28.372C31.2808 29.256 29.1868 30.439 27.8228 32.064C26.4598 33.69 25.8618 35.579 26.0298 37.694Z" fill="#617457" stroke="#617457" stroke-miterlimit="10"/>
<path d="M7.94184 20.078C6.14884 19.812 4.38583 19.117 3.05583 17.886C1.72583 16.655 0.875834 14.851 1.01483 13.044C2.75183 13.088 4.55283 13.709 5.74883 14.971C6.94483 16.232 7.99084 18.34 7.94184 20.078Z" fill="#617457" stroke="#617457" stroke-miterlimit="10"/>
<path d="M160.806 16.663C160.24 16.663 159.781 16.2039 159.781 15.638C159.781 15.0726 160.239 14.6138 160.806 14.613C161.372 14.6132 161.831 15.0722 161.831 15.638C161.831 16.2039 161.372 16.663 160.806 16.663Z" fill="#617457" stroke="#617457"/>
<path d="M167.912 27.778C167.346 27.778 166.887 27.3189 166.887 26.753C166.887 26.1872 167.346 25.728 167.912 25.728C168.478 25.728 168.937 26.1872 168.937 26.753C168.937 27.3189 168.478 27.778 167.912 27.778Z" fill="#617457" stroke="#617457"/>
<path d="M149.324 25.119C148.758 25.119 148.299 24.6599 148.299 24.094C148.299 23.5288 148.757 23.0698 149.324 23.069C149.89 23.0692 150.349 23.5283 150.349 24.094C150.349 24.6599 149.89 25.119 149.324 25.119Z" fill="#617457" stroke="#617457"/>
</svg>
